<svg width="51" height="54" viewBox="0 0 51 54" fill="none"
  xmlns="http://www.w3.org/2000/svg">
  <g clip-path="url(#clip0_106_20)">
    <path fill-rule="evenodd" clip-rule="evenodd" d="M2.06591 17.9176C1.28533 17.4754 0.672354 16.7847 0.322993 15.9538C-0.0263669 15.1228 -0.0923728 14.1986 0.135315 13.3258C0.363003 12.453 0.871523 11.681 1.58122 11.1307C2.29091 10.5804 3.16169 10.2828 4.05715 10.2847C4.62231 10.2772 5.18172 10.3998 5.6928 10.643L22.725 0.716705C23.5444 0.234732 24.4787 -0.0130485 25.4274 1.85739e-06C26.3733 0.00877191 27.3021 0.255103 28.1298 0.716705L42.6693 9.1738C41.5971 9.90861 40.7773 10.9602 40.3225 12.184L26.2096 4.01354C25.9597 3.87261 25.6782 3.79862 25.3918 3.79862C25.1054 3.79862 24.8239 3.87261 24.574 4.01354L8.00406 13.6532C8.04551 13.89 8.06928 14.1295 8.07517 14.3699C8.07531 15.2077 7.8194 16.0252 7.34224 16.7113C6.86509 17.3973 6.18985 17.9186 5.40834 18.2043H5.37278C5.26611 18.2401 5.12388 18.2759 4.98165 18.3118C4.94609 18.3118 4.94609 18.3118 4.91053 18.3476C4.80386 18.3834 4.66163 18.3834 4.55495 18.4193H4.44828C4.30605 18.4193 4.16382 18.4551 3.98603 18.4551C3.8193 18.4611 3.65241 18.4491 3.48822 18.4193C3.43832 18.422 3.38876 18.4095 3.34599 18.3834C3.23932 18.3476 3.09709 18.3476 2.99041 18.3118C2.95485 18.3118 2.9193 18.2759 2.88374 18.2759C2.60123 18.1809 2.32756 18.061 2.06591 17.9176ZM50.1364 14.3699C50.136 14.9534 50.0121 15.5302 49.773 16.0616C49.5339 16.593 49.185 17.067 48.7497 17.4517V36.8027C48.7479 37.7554 48.4972 38.6909 48.0228 39.5149C47.5484 40.339 46.8671 41.0226 46.0473 41.4971L31.6109 49.9184C31.6107 48.5944 31.1728 47.3083 30.3663 46.2632L44.1627 38.2361C44.408 38.0951 44.6125 37.892 44.7559 37.6469C44.8994 37.4017 44.9768 37.1231 44.9806 36.8385V18.2759C44.1414 18.0292 43.4039 17.5154 42.8784 16.8114C42.3529 16.1074 42.0675 15.2509 42.0648 14.3699C42.0612 13.5054 42.3357 12.663 42.8471 11.9689C42.8471 11.9594 42.8509 11.9503 42.8575 11.9436C42.8642 11.9369 42.8732 11.9331 42.8827 11.9331C42.9893 11.8256 43.0605 11.6823 43.1671 11.5748C43.3923 11.3439 43.6428 11.1395 43.9138 10.9656C43.9321 10.9448 43.9576 10.932 43.985 10.9297C44.0838 10.8568 44.1913 10.7967 44.305 10.7505C44.3405 10.7505 44.3761 10.7147 44.4117 10.7147C44.5539 10.643 44.6961 10.6072 44.8383 10.5355C45.2313 10.4202 45.6381 10.3599 46.0473 10.3564C46.5671 10.3387 47.0852 10.4244 47.5721 10.6086C48.059 10.7929 48.5051 11.072 48.8849 11.4301C49.2647 11.7882 49.5707 12.2183 49.7854 12.6956C50.0002 13.173 50.1195 13.6884 50.1364 14.2122C50.1364 14.2624 50.1364 14.3341 50.1364 14.3699ZM29.4418 49.9542C29.4418 50.1692 29.4063 50.3842 29.4063 50.5634V50.6351C29.2479 51.5253 28.8009 52.3374 28.1354 52.944C27.4698 53.5507 26.6233 53.9176 25.7286 53.9873C24.8339 54.057 23.9415 53.8255 23.1914 53.3291C22.4412 52.8326 21.8757 52.0994 21.5836 51.2443L4.72919 41.4613C3.90845 40.9879 3.22631 40.3045 2.75178 39.4802C2.27725 38.6559 2.02716 37.7199 2.0268 36.7669V20.2827C2.66818 20.5008 3.34113 20.6098 4.01803 20.6052C4.61873 20.5967 5.216 20.5124 5.79592 20.3544V36.7669C5.79825 37.0517 5.87509 37.3309 6.01868 37.5763C6.16227 37.8217 6.36752 38.0245 6.61375 38.1644L22.2983 47.3024C22.6781 46.8588 23.1472 46.5016 23.6744 46.2545C24.2016 46.0073 24.7749 45.876 25.3562 45.869C25.9954 45.866 26.6259 46.0173 27.1951 46.3103C27.7642 46.6034 28.2554 47.0296 28.6276 47.5533C28.6276 47.5891 28.6631 47.5891 28.6631 47.6249C28.6631 47.6608 28.7698 47.7683 28.8053 47.8399C28.8409 47.9116 28.8409 47.9116 28.8765 47.9116L28.9831 48.1266C29.0187 48.1625 29.0187 48.1983 29.0543 48.2341L29.1609 48.4491C29.1965 48.485 29.1965 48.5566 29.232 48.5925C29.2676 48.6283 29.2676 48.7358 29.3032 48.7717C29.3272 48.8283 29.3393 48.8893 29.3387 48.9508C29.3387 49.0225 29.3743 49.0583 29.3743 49.13C29.3743 49.2017 29.4098 49.2733 29.4098 49.3809C29.4039 49.4314 29.4165 49.4824 29.4454 49.5242L29.4418 49.9542Z" fill="#08E045"/>
    <path d="M22 36L25 31.1143M21 28.9429L21.8588 35.4701C21.9368 36.0626 22.0752 36.0532 22.1651 35.4672L23 30.0286M31.2021 33.7621L16.0036 26.6264C15.2245 26.2606 15.2408 25.1468 16.0303 24.804L32.461 17.6684C33.1558 17.3666 33.9208 17.9169 33.8557 18.6716L32.6234 32.9429C32.5635 33.636 31.8318 34.0577 31.2021 33.7621Z" stroke="#08E045" stroke-width="3"/>
  </g>
  <defs>
    <clipPath id="clip0_106_20">
      <rect width="50.14" height="54" fill="white"/>
    </clipPath>
  </defs>
</svg>
